<mxfile host="Electron" modified="2023-12-16T16:46:20.750Z" agent="Mozilla/5.0 (Windows NT 10.0; Win64; x64) AppleWebKit/537.36 (KHTML, like Gecko) draw.io/22.1.2 Chrome/114.0.5735.289 Electron/25.9.4 Safari/537.36" etag="mFfjdPjbdygY0B6m-E0A" version="22.1.2" type="device">
  <diagram name="Страница — 1" id="dI7vLvLZwqIRt6VPlLzn">
    <mxGraphModel dx="1235" dy="731" grid="1" gridSize="10" guides="1" tooltips="1" connect="1" arrows="1" fold="1" page="1" pageScale="1" pageWidth="827" pageHeight="1169" math="0" shadow="0">
      <root>
        <mxCell id="0" />
        <mxCell id="1" parent="0" />
        <mxCell id="18jitKA3z81b44itxoWQ-3" style="edgeStyle=orthogonalEdgeStyle;rounded=0;orthogonalLoop=1;jettySize=auto;html=1;entryX=0.5;entryY=0;entryDx=0;entryDy=0;" edge="1" parent="1" source="18jitKA3z81b44itxoWQ-1" target="18jitKA3z81b44itxoWQ-2">
          <mxGeometry relative="1" as="geometry" />
        </mxCell>
        <mxCell id="18jitKA3z81b44itxoWQ-1" value="Начало" style="ellipse;whiteSpace=wrap;html=1;" vertex="1" parent="1">
          <mxGeometry x="340" y="70" width="120" height="40" as="geometry" />
        </mxCell>
        <mxCell id="18jitKA3z81b44itxoWQ-5" style="edgeStyle=orthogonalEdgeStyle;rounded=0;orthogonalLoop=1;jettySize=auto;html=1;entryX=0.5;entryY=0;entryDx=0;entryDy=0;" edge="1" parent="1" source="18jitKA3z81b44itxoWQ-2" target="18jitKA3z81b44itxoWQ-4">
          <mxGeometry relative="1" as="geometry" />
        </mxCell>
        <mxCell id="18jitKA3z81b44itxoWQ-2" value="Отправка отчета о выполненных работах" style="rounded=0;whiteSpace=wrap;html=1;" vertex="1" parent="1">
          <mxGeometry x="340" y="130" width="120" height="50" as="geometry" />
        </mxCell>
        <mxCell id="18jitKA3z81b44itxoWQ-7" style="edgeStyle=orthogonalEdgeStyle;rounded=0;orthogonalLoop=1;jettySize=auto;html=1;entryX=0.5;entryY=0;entryDx=0;entryDy=0;" edge="1" parent="1" source="18jitKA3z81b44itxoWQ-4" target="18jitKA3z81b44itxoWQ-6">
          <mxGeometry relative="1" as="geometry" />
        </mxCell>
        <mxCell id="18jitKA3z81b44itxoWQ-4" value="Проверка корректности выполненных работ" style="rounded=0;whiteSpace=wrap;html=1;" vertex="1" parent="1">
          <mxGeometry x="340" y="210" width="120" height="50" as="geometry" />
        </mxCell>
        <mxCell id="18jitKA3z81b44itxoWQ-10" style="edgeStyle=orthogonalEdgeStyle;rounded=0;orthogonalLoop=1;jettySize=auto;html=1;entryX=0.5;entryY=0;entryDx=0;entryDy=0;" edge="1" parent="1" source="18jitKA3z81b44itxoWQ-6" target="18jitKA3z81b44itxoWQ-9">
          <mxGeometry relative="1" as="geometry" />
        </mxCell>
        <mxCell id="18jitKA3z81b44itxoWQ-15" style="edgeStyle=orthogonalEdgeStyle;rounded=0;orthogonalLoop=1;jettySize=auto;html=1;entryX=0.5;entryY=0;entryDx=0;entryDy=0;" edge="1" parent="1" source="18jitKA3z81b44itxoWQ-6" target="18jitKA3z81b44itxoWQ-14">
          <mxGeometry relative="1" as="geometry" />
        </mxCell>
        <mxCell id="18jitKA3z81b44itxoWQ-17" value="Нет" style="edgeLabel;html=1;align=center;verticalAlign=middle;resizable=0;points=[];" vertex="1" connectable="0" parent="18jitKA3z81b44itxoWQ-15">
          <mxGeometry x="-0.4255" y="-3" relative="1" as="geometry">
            <mxPoint x="-2" y="-18" as="offset" />
          </mxGeometry>
        </mxCell>
        <mxCell id="18jitKA3z81b44itxoWQ-6" value="Ошибки выявлены?" style="rhombus;whiteSpace=wrap;html=1;" vertex="1" parent="1">
          <mxGeometry x="350" y="290" width="100" height="60" as="geometry" />
        </mxCell>
        <mxCell id="18jitKA3z81b44itxoWQ-13" style="edgeStyle=orthogonalEdgeStyle;rounded=0;orthogonalLoop=1;jettySize=auto;html=1;" edge="1" parent="1" source="18jitKA3z81b44itxoWQ-9">
          <mxGeometry relative="1" as="geometry">
            <mxPoint x="400" y="190" as="targetPoint" />
            <Array as="points">
              <mxPoint x="221" y="380" />
              <mxPoint x="221" y="190" />
              <mxPoint x="400" y="190" />
            </Array>
          </mxGeometry>
        </mxCell>
        <mxCell id="18jitKA3z81b44itxoWQ-9" value="Исправление ошибок" style="rounded=0;whiteSpace=wrap;html=1;" vertex="1" parent="1">
          <mxGeometry x="250" y="360" width="90" height="40" as="geometry" />
        </mxCell>
        <mxCell id="18jitKA3z81b44itxoWQ-11" value="Да" style="text;html=1;align=center;verticalAlign=middle;resizable=0;points=[];autosize=1;strokeColor=none;fillColor=none;" vertex="1" parent="1">
          <mxGeometry x="310" y="290" width="40" height="30" as="geometry" />
        </mxCell>
        <mxCell id="18jitKA3z81b44itxoWQ-18" style="edgeStyle=orthogonalEdgeStyle;rounded=0;orthogonalLoop=1;jettySize=auto;html=1;" edge="1" parent="1" source="18jitKA3z81b44itxoWQ-14" target="18jitKA3z81b44itxoWQ-16">
          <mxGeometry relative="1" as="geometry" />
        </mxCell>
        <mxCell id="18jitKA3z81b44itxoWQ-14" value="Рассмотрение отчета заказчиком" style="rounded=0;whiteSpace=wrap;html=1;" vertex="1" parent="1">
          <mxGeometry x="460" y="380" width="120" height="40" as="geometry" />
        </mxCell>
        <mxCell id="18jitKA3z81b44itxoWQ-20" style="edgeStyle=orthogonalEdgeStyle;rounded=0;orthogonalLoop=1;jettySize=auto;html=1;entryX=0.5;entryY=0;entryDx=0;entryDy=0;" edge="1" parent="1" source="18jitKA3z81b44itxoWQ-16" target="18jitKA3z81b44itxoWQ-19">
          <mxGeometry relative="1" as="geometry">
            <Array as="points">
              <mxPoint x="420" y="470" />
            </Array>
          </mxGeometry>
        </mxCell>
        <mxCell id="18jitKA3z81b44itxoWQ-21" value="Да" style="edgeLabel;html=1;align=center;verticalAlign=middle;resizable=0;points=[];" vertex="1" connectable="0" parent="18jitKA3z81b44itxoWQ-20">
          <mxGeometry x="-0.56" relative="1" as="geometry">
            <mxPoint as="offset" />
          </mxGeometry>
        </mxCell>
        <mxCell id="18jitKA3z81b44itxoWQ-25" style="edgeStyle=orthogonalEdgeStyle;rounded=0;orthogonalLoop=1;jettySize=auto;html=1;entryX=0.5;entryY=0;entryDx=0;entryDy=0;" edge="1" parent="1" source="18jitKA3z81b44itxoWQ-16" target="18jitKA3z81b44itxoWQ-24">
          <mxGeometry relative="1" as="geometry">
            <Array as="points">
              <mxPoint x="640" y="470" />
            </Array>
          </mxGeometry>
        </mxCell>
        <mxCell id="18jitKA3z81b44itxoWQ-26" value="Нет" style="edgeLabel;html=1;align=center;verticalAlign=middle;resizable=0;points=[];" vertex="1" connectable="0" parent="18jitKA3z81b44itxoWQ-25">
          <mxGeometry x="-0.2978" relative="1" as="geometry">
            <mxPoint as="offset" />
          </mxGeometry>
        </mxCell>
        <mxCell id="18jitKA3z81b44itxoWQ-16" value="Есть замечания?" style="rhombus;whiteSpace=wrap;html=1;" vertex="1" parent="1">
          <mxGeometry x="460" y="440" width="120" height="60" as="geometry" />
        </mxCell>
        <mxCell id="18jitKA3z81b44itxoWQ-23" style="edgeStyle=orthogonalEdgeStyle;rounded=0;orthogonalLoop=1;jettySize=auto;html=1;" edge="1" parent="1" source="18jitKA3z81b44itxoWQ-19">
          <mxGeometry relative="1" as="geometry">
            <mxPoint x="520" y="360" as="targetPoint" />
            <Array as="points">
              <mxPoint x="360" y="520" />
              <mxPoint x="360" y="360" />
            </Array>
          </mxGeometry>
        </mxCell>
        <mxCell id="18jitKA3z81b44itxoWQ-19" value="Исправление замечаний" style="rounded=0;whiteSpace=wrap;html=1;" vertex="1" parent="1">
          <mxGeometry x="380" y="500" width="80" height="40" as="geometry" />
        </mxCell>
        <mxCell id="18jitKA3z81b44itxoWQ-28" style="edgeStyle=orthogonalEdgeStyle;rounded=0;orthogonalLoop=1;jettySize=auto;html=1;entryX=0.5;entryY=0;entryDx=0;entryDy=0;" edge="1" parent="1" source="18jitKA3z81b44itxoWQ-24" target="18jitKA3z81b44itxoWQ-27">
          <mxGeometry relative="1" as="geometry" />
        </mxCell>
        <mxCell id="18jitKA3z81b44itxoWQ-24" value="Подписание отчета директором" style="rounded=0;whiteSpace=wrap;html=1;" vertex="1" parent="1">
          <mxGeometry x="580" y="500" width="120" height="40" as="geometry" />
        </mxCell>
        <mxCell id="18jitKA3z81b44itxoWQ-35" style="edgeStyle=orthogonalEdgeStyle;rounded=0;orthogonalLoop=1;jettySize=auto;html=1;entryX=0.5;entryY=0;entryDx=0;entryDy=0;" edge="1" parent="1" source="18jitKA3z81b44itxoWQ-27" target="18jitKA3z81b44itxoWQ-32">
          <mxGeometry relative="1" as="geometry" />
        </mxCell>
        <mxCell id="18jitKA3z81b44itxoWQ-27" value="Согласование с заказчиком" style="rounded=0;whiteSpace=wrap;html=1;" vertex="1" parent="1">
          <mxGeometry x="580" y="580" width="120" height="30" as="geometry" />
        </mxCell>
        <mxCell id="18jitKA3z81b44itxoWQ-30" style="edgeStyle=orthogonalEdgeStyle;rounded=0;orthogonalLoop=1;jettySize=auto;html=1;entryX=0.5;entryY=0;entryDx=0;entryDy=0;" edge="1" parent="1" source="18jitKA3z81b44itxoWQ-32" target="18jitKA3z81b44itxoWQ-34">
          <mxGeometry relative="1" as="geometry">
            <Array as="points">
              <mxPoint x="540" y="670" />
            </Array>
          </mxGeometry>
        </mxCell>
        <mxCell id="18jitKA3z81b44itxoWQ-31" value="Да" style="edgeLabel;html=1;align=center;verticalAlign=middle;resizable=0;points=[];" vertex="1" connectable="0" parent="18jitKA3z81b44itxoWQ-30">
          <mxGeometry x="-0.56" relative="1" as="geometry">
            <mxPoint as="offset" />
          </mxGeometry>
        </mxCell>
        <mxCell id="18jitKA3z81b44itxoWQ-37" style="edgeStyle=orthogonalEdgeStyle;rounded=0;orthogonalLoop=1;jettySize=auto;html=1;entryX=0.5;entryY=0;entryDx=0;entryDy=0;" edge="1" parent="1" source="18jitKA3z81b44itxoWQ-32" target="18jitKA3z81b44itxoWQ-36">
          <mxGeometry relative="1" as="geometry">
            <Array as="points">
              <mxPoint x="755" y="670" />
            </Array>
          </mxGeometry>
        </mxCell>
        <mxCell id="18jitKA3z81b44itxoWQ-40" value="Нет" style="edgeLabel;html=1;align=center;verticalAlign=middle;resizable=0;points=[];" vertex="1" connectable="0" parent="18jitKA3z81b44itxoWQ-37">
          <mxGeometry x="-0.3788" relative="1" as="geometry">
            <mxPoint as="offset" />
          </mxGeometry>
        </mxCell>
        <mxCell id="18jitKA3z81b44itxoWQ-32" value="Есть замечания?" style="rhombus;whiteSpace=wrap;html=1;" vertex="1" parent="1">
          <mxGeometry x="580" y="640" width="120" height="60" as="geometry" />
        </mxCell>
        <mxCell id="18jitKA3z81b44itxoWQ-33" style="edgeStyle=orthogonalEdgeStyle;rounded=0;orthogonalLoop=1;jettySize=auto;html=1;" edge="1" parent="1" source="18jitKA3z81b44itxoWQ-34">
          <mxGeometry relative="1" as="geometry">
            <mxPoint x="640" y="560" as="targetPoint" />
            <Array as="points">
              <mxPoint x="480" y="720" />
              <mxPoint x="480" y="560" />
            </Array>
          </mxGeometry>
        </mxCell>
        <mxCell id="18jitKA3z81b44itxoWQ-34" value="Исправление замечаний" style="rounded=0;whiteSpace=wrap;html=1;" vertex="1" parent="1">
          <mxGeometry x="500" y="700" width="80" height="40" as="geometry" />
        </mxCell>
        <mxCell id="18jitKA3z81b44itxoWQ-39" style="edgeStyle=orthogonalEdgeStyle;rounded=0;orthogonalLoop=1;jettySize=auto;html=1;entryX=0.5;entryY=0;entryDx=0;entryDy=0;" edge="1" parent="1" source="18jitKA3z81b44itxoWQ-36" target="18jitKA3z81b44itxoWQ-38">
          <mxGeometry relative="1" as="geometry" />
        </mxCell>
        <mxCell id="18jitKA3z81b44itxoWQ-36" value="Подписание отчета заказчиком" style="rounded=0;whiteSpace=wrap;html=1;" vertex="1" parent="1">
          <mxGeometry x="700" y="700" width="110" height="40" as="geometry" />
        </mxCell>
        <mxCell id="18jitKA3z81b44itxoWQ-38" value="Конец" style="ellipse;whiteSpace=wrap;html=1;" vertex="1" parent="1">
          <mxGeometry x="700" y="760" width="110" height="40" as="geometry" />
        </mxCell>
      </root>
    </mxGraphModel>
  </diagram>
</mxfile>
